<?xml version="1.0" standalone="no"?>
<!DOCTYPE svg PUBLIC "-//W3C//DTD SVG 20010904//EN"
 "http://www.w3.org/TR/2001/REC-SVG-20010904/DTD/svg10.dtd">
<svg version="1.0" xmlns="http://www.w3.org/2000/svg"
 width="1000.000000pt" height="1000.000000pt" viewBox="0 0 1000.000000 1000.000000"
 preserveAspectRatio="xMidYMid meet">
<metadata>
Created by potrace 1.11, written by Peter Selinger 2001-2013
</metadata>
<g transform="translate(0.000000,1000.000000) scale(0.100000,-0.100000)"
fill="#000000" stroke="none">
<path d="M7425 9764 c-262 -26 -423 -72 -650 -185 -174 -86 -298 -173 -439
-309 -321 -310 -497 -674 -547 -1126 -13 -123 -6 -339 15 -449 l14 -70 -83
-110 c-275 -364 -616 -652 -1005 -849 -322 -163 -624 -255 -987 -301 -128 -16
-134 -16 -156 2 -246 192 -427 289 -671 359 -169 49 -303 68 -486 68 -284 1
-515 -50 -768 -170 -512 -241 -874 -704 -994 -1273 -31 -146 -33 -512 -4 -666
40 -217 145 -479 262 -655 177 -266 438 -498 716 -633 120 -59 331 -129 463
-153 155 -29 511 -27 658 4 290 61 587 201 785 369 l53 45 82 -7 c122 -10 294
-41 452 -82 660 -169 1234 -565 1647 -1138 l36 -50 -14 -70 c-7 -38 -16 -131
-20 -205 -35 -707 371 -1383 1015 -1692 257 -123 572 -189 840 -175 447 23
847 195 1170 502 376 357 588 914 542 1424 -21 235 -77 443 -176 647 -188 389
-533 713 -924 870 l-106 42 -36 73 c-88 177 -178 476 -225 744 -32 182 -44
536 -25 727 30 310 109 616 237 915 l39 92 90 36 c486 192 875 605 1039 1100
124 374 124 756 0 1130 -207 625 -754 1093 -1404 1201 -85 14 -360 26 -435 18z
m-976 -3178 c139 -111 327 -219 480 -277 35 -13 69 -33 77 -44 26 -39 124
-298 163 -428 43 -146 71 -272 98 -447 23 -146 25 -595 5 -735 -49 -322 -130
-610 -245 -866 -25 -55 -26 -56 -109 -88 -160 -64 -323 -158 -462 -269 l-69
-56 -116 13 c-662 73 -1268 364 -1736 835 -122 123 -232 252 -320 374 l-38 54
12 76 c23 139 26 365 6 506 l-18 127 34 47 c178 251 427 502 689 694 277 202
663 378 1005 458 92 21 351 67 410 73 22 2 46 4 53 5 7 1 44 -22 81 -52z"/>
</g>
</svg>
